        <svg
          xmlns="http://www.w3.org/2000/svg"
          xmlns:xlink="http://www.w3.org/1999/xlink"
          id="Camada_1"
          x="0px"
          y="0px"
          viewBox="0 0 88 100"
          xml:space="preserve"
        >
          <style type="text/css">
            .st0 {
              clip-path: url(#SVGID_2_);
              fill: url(#SVGID_3_);
            }
            .st1 {
              fill: #ffffff;
            }
            .st2 {
              clip-path: url(#SVGID_5_);
              fill: url(#SVGID_6_);
            }
          </style>
          <g>
            <defs>
              <path
                id="SVGID_1_"
                d="M0,29.8V68c0,3.8,2.1,7.4,5.4,9.3l33.2,19.1c1.7,1,3.5,1.4,5.4,1.4c1.9,0,3.7-0.5,5.4-1.4l33.2-19.1    c3.3-1.9,5.4-5.5,5.4-9.3V29.8c0-3.8-2.1-7.4-5.4-9.3L49.3,1.4c-1.7-1-3.5-1.4-5.4-1.4c-1.9,0-3.7,0.5-5.4,1.4L5.4,20.5    C2.1,22.5,0,26,0,29.8"
              />
            </defs>
            <clipPath id="SVGID_2_">
              <use xlink:href="#SVGID_1_" style="overflow: visible" />
            </clipPath>
            <linearGradient
              id="SVGID_3_"
              gradientUnits="userSpaceOnUse"
              x1="10.2052"
              y1="82.668"
              x2="77.6799"
              y2="15.1932"
            >
              <stop offset="0" style="stop-color: #602779" />
              <stop offset="8.000000e-02" style="stop-color: #602779" />
              <stop offset="0.51" style="stop-color: #465d95" />
              <stop offset="1" style="stop-color: #00a9ab" />
            </linearGradient>
            <rect x="0" class="st0" width="100%" height="100%" />
          </g>
        </svg>