<svg xmlns="http://www.w3.org/2000/svg" xmlns:xlink="http://www.w3.org/1999/xlink" id="Camada_1" x="0px" y="0px" viewBox="0 0 300 97.9" style="enable-background:new 0 0 300 97.9;" xml:space="preserve">
<style type="text/css">
	.st0{clip-path:url(#SVGID_2_);fill:url(#SVGID_3_);}
	.st1{fill:#FFFFFF;}
	.st2{clip-path:url(#SVGID_5_);fill:url(#SVGID_6_);}
</style>
<g>
	<defs>
		<path id="SVGID_1_" d="M0,29.8V68c0,3.8,2.1,7.4,5.4,9.3l33.2,19.1c1.7,1,3.5,1.4,5.4,1.4c1.9,0,3.7-0.5,5.4-1.4l33.2-19.1    c3.3-1.9,5.4-5.5,5.4-9.3V29.8c0-3.8-2.1-7.4-5.4-9.3L49.3,1.4c-1.7-1-3.5-1.4-5.4-1.4c-1.9,0-3.7,0.5-5.4,1.4L5.4,20.5    C2.1,22.5,0,26,0,29.8"></path>
	</defs>
	<clipPath id="SVGID_2_">
		<use xlink:href="#SVGID_1_" style="overflow:visible;"></use>
	</clipPath>
	<linearGradient id="SVGID_3_" gradientUnits="userSpaceOnUse" x1="10.2052" y1="82.668" x2="77.6799" y2="15.1932">
		<stop offset="0" style="stop-color:#602779"></stop>
		<stop offset="8.000000e-02" style="stop-color:#602779"></stop>
		<stop offset="0.51" style="stop-color:#465D95"></stop>
		<stop offset="1" style="stop-color:#00A9AB"></stop>
	</linearGradient>
	<rect x="0" class="st0" width="87.9" height="97.9"></rect>
</g>
<path class="st1" d="M72.8,40.6c0.9-3.4,0.2-6.7-2.2-9.3c-2-2.2-5-3.6-7.6-3.6c-0.1-0.3-0.3-0.6-0.4-0.9c-2.4-4.9-7.1-8.1-12.8-8.9  c-5.1-0.7-10.2,0.6-13.9,3.5c-0.1,0.1-0.2,0.2-0.3,0.2c-8.6-1.8-14.4,3-16.5,9c-0.7,2.1-1,4.2-0.7,5.9c-0.9,0.3-1.8,0.7-2.6,1.2  c-3.4,2.2-5,6.2-4.3,10.2c0.7,4.1,3.4,7.6,7.2,9.4c1.8,0.8,3.6,1.3,5.6,1.3c1.3,0,2.7-0.2,4.1-0.6c0.2,0.6,0.4,1.1,0.7,1.6  c1.3,2.5,3.5,4.1,6.3,4.8c1,0.3,2.1,0.4,3.3,0.4c1.8,0,3.8-0.3,5.9-1c8.9,7,14.5,15.7,14.6,15.8c0.5,0.8,1.4,1.3,2.3,1.3  c0.5,0,1-0.1,1.5-0.4c1.3-0.8,1.6-2.5,0.8-3.8c-0.2-0.2-2.4-3.7-6.2-8.1c1.2,0.3,2.4,0.4,3.5,0.5c0.2,0,0.4,0,0.6,0  c3.3,0,6.1-1,8-2.9c2.4-2.4,3.3-5.9,2.4-9.2c-0.2-0.6-0.4-1.1-0.6-1.6c1.9-1,3.4-2.8,4.2-5C76.7,46.9,75.7,43.1,72.8,40.6   M65.5,62.5c-1.2,1.2-3.2,1.4-4.6,1.3c-3-0.1-6.4-1.4-9-3.2c0.9-0.5,1.8-1.1,2.8-1.7c1.3-0.8,1.6-2.5,0.8-3.8  c-0.8-1.3-2.5-1.6-3.8-0.8c-6,4-11.7,5.8-15.3,4.9c-1.3-0.3-2.2-1-2.8-2.1c-0.4-0.8-0.8-1.9-0.2-3.2c0.6-1.5,2.3-2.6,4.7-3.2  c1.5-0.4,2.3-1.9,2-3.3c-0.4-1.5-1.9-2.3-3.3-2c-4,1-6.9,3.3-8.3,6.3c-0.1,0.2-0.1,0.3-0.2,0.5c-3.3,1.6-5.8,1-7.4,0.3  c-2.2-1-3.7-3.1-4.2-5.5c-0.5-2.8,1.2-4.2,2-4.8c1-0.7,2.1-0.8,2.7-0.6c0.1,0.1,0.3,0.1,0.4,0.2c0.1,0,0.1,0.1,0.2,0.1l0,0l0,0  c0.1,0,0.1,0,0.2,0.1c0,0,0.1,0,0.1,0c0.1,0,0.1,0,0.2,0c0,0,0.1,0,0.1,0c0,0,0.1,0,0.1,0c0,0,0.1,0,0.1,0c0,0,0.1,0,0.1,0  c0,0,0.1,0,0.1,0l0,0c0.1,0,0.2,0,0.3,0c0,0,0.1,0,0.1,0c0.1,0,0.2,0,0.3-0.1c0,0,0,0,0.1,0c0.1,0,0.2-0.1,0.3-0.1c0,0,0,0,0.1,0  c0.1,0,0.2-0.1,0.3-0.2l0,0c0.1-0.1,0.2-0.1,0.3-0.2l0.1-0.1c0.1-0.1,0.1-0.1,0.2-0.2c0,0,0,0,0.1-0.1c0.1-0.1,0.1-0.2,0.2-0.3l0,0  c0,0,0,0,0-0.1c0.1-0.1,0.1-0.2,0.1-0.3l0,0l0,0c0-0.1,0-0.1,0.1-0.2c0,0,0-0.1,0-0.1c0-0.1,0-0.1,0-0.2c0,0,0-0.1,0-0.1  c0,0,0-0.1,0-0.1c0,0,0-0.1,0-0.1c0,0,0-0.1,0-0.1c0-0.1,0-0.1,0-0.2c0,0,0-0.1,0-0.1c0-0.1,0-0.1,0-0.2c0,0,0-0.1,0-0.1  c0-0.1,0-0.1,0-0.2c0,0,0-0.1,0-0.1c0,0,0-0.1,0-0.1c0,0,0-0.1,0-0.1c0,0,0-0.1,0-0.1c0,0,0-0.1-0.1-0.1c0,0,0-0.1,0-0.1  c0,0-0.1-0.1-0.1-0.1c0,0,0-0.1-0.1-0.1c0,0-0.1-0.1-0.1-0.1c0,0,0-0.1-0.1-0.1c0,0-0.1-0.1-0.1-0.1c0,0-0.1-0.1-0.1-0.1  c0,0-0.1-0.1-0.1-0.1c0,0-0.1-0.1-0.1-0.1c0,0-0.1,0-0.1-0.1c0,0-0.1-0.1-0.1-0.1l0,0c0,0-0.1,0-0.1-0.1c0,0-0.1,0-0.1,0  C24.2,37.1,24.1,37,24,37c-0.3-0.3-0.8-2,0.1-4.5c1-3,3.6-5.6,7.7-5.7c-0.3,0.9-0.5,1.8-0.6,2.7c-0.1,1.5,1,2.8,2.5,2.9  c1.5,0.1,2.8-1,2.9-2.5c0.1-1.1,0.6-2.1,1.4-3.1c0.2-0.1,0.3-0.3,0.5-0.5c0.2-0.2,0.4-0.4,0.7-0.6c2.5-2,6.1-2.9,9.7-2.4  c5.4,0.8,7.8,4.1,8.7,6c1.2,2.4,1.1,4.5,0.7,5.3c-0.7,1.3-0.2,3,1.1,3.7c0.4,0.2,0.9,0.3,1.3,0.3c1,0,1.9-0.5,2.4-1.4  c0.6-1.1,0.9-2.4,0.9-3.8c0.8,0.3,1.7,0.8,2.5,1.6c1.4,1.5,1.6,3.3,0.5,5.3c-0.6,1.2-0.2,2.6,0.8,3.4c0.2,0.2,0.5,0.5,0.7,0.6  c2.4,1.4,1.8,3.6,1.6,4.3c-0.6,1.6-2.2,3-4.4,2.5c-0.1,0-0.2,0-0.3,0c-1.4-0.2-2.7,0.7-3,2.1c-0.3,1.5,0.6,2.9,2,3.3  c0.9,0.2,1.6,1.1,2,2.2C66.7,59.3,67,61.1,65.5,62.5z"></path>
<path class="st1" d="M53.1,42.7c-0.4-0.1-1.6-0.7-2-1.4c-0.4-0.7-0.4-1.7-0.4-1.9c0.2-1.5-0.9-2.8-2.4-3c-1.5-0.2-2.8,0.9-3,2.4  c0,0.3-0.3,2.9,1.1,5.3c1.6,2.6,4.7,3.7,5,3.8c0.3,0.1,0.6,0.1,0.8,0.1c1.2,0,2.2-0.7,2.6-1.9C55.3,44.7,54.5,43.2,53.1,42.7"></path>
<path class="st1" d="M69,71.2c-0.8-1-2.4-1.4-3.5-0.8c-1.6,0.9-1.8,2.7-0.8,4l0.5,0.6c0.9,1.2,2.6,1.5,3.8,0.5  c1.2-0.9,1.4-2.7,0.5-3.8L69,71.2z"></path>
<g>
	<defs>
		<path id="SVGID_4_" d="M274.9,34.1c-3.4,0-6.3,2.5-6.9,5.9l-1.8,11.5h26.4c3,0,5.5-2.2,6-5.1l1.4-8.6c0.3-1.9-1.2-3.6-3.1-3.6    H274.9z"></path>
	</defs>
	<clipPath id="SVGID_5_">
		<use xlink:href="#SVGID_4_" style="overflow:visible;"></use>
	</clipPath>
	<linearGradient id="SVGID_6_" gradientUnits="userSpaceOnUse" x1="267.2266" y1="52.9755" x2="297.8992" y2="33.3477">
		<stop offset="0" style="stop-color:#602779"></stop>
		<stop offset="1" style="stop-color:#00A9AB"></stop>
	</linearGradient>
	<rect x="266.2" y="34.1" class="st2" width="34" height="17.4"></rect>
</g>
<path class="st1" d="M115.5,39.4c0.9,0.3,1.6,0.8,2.1,1.5c0.5,0.7,0.8,1.6,0.8,2.7c0,0.9-0.2,1.8-0.5,2.7c-0.3,0.9-0.8,1.7-1.5,2.4  c-0.7,0.7-1.5,1.3-2.7,1.8c-1.1,0.4-2.4,0.7-3.9,0.7h-11l3.5-20.1c0.1-0.6,0.4-1.1,0.8-1.5c0.5-0.4,1-0.6,1.7-0.6h8.3  c1.7,0,3.1,0.5,4.1,1.4c1,0.9,1.5,2.2,1.5,3.7c0,1-0.3,2-0.8,3C117.6,38.2,116.7,38.9,115.5,39.4 M109,46.8c1,0,1.8-0.3,2.4-0.8  c0.6-0.5,0.9-1.2,0.9-2c0-1.3-0.8-2-2.4-2h-3.8l-0.8,4.8H109z M110.2,37.7c1,0,1.8-0.2,2.3-0.7c0.6-0.4,0.9-1.1,0.9-1.9  c0-0.6-0.2-1-0.6-1.3c-0.4-0.3-0.9-0.5-1.5-0.5h-3.6l-0.8,4.3H110.2z"></path>
<path class="st1" d="M131.5,35.3c1.1,0,2,0.2,2.6,0.7l-1.9,4.2c-0.6-0.3-1.3-0.5-2-0.5c-1.2,0-2.5,0.4-3.7,1.2l-1.8,10.2H119  l2.7-15.5h5.4l-0.3,1.5C128.4,35.9,130,35.3,131.5,35.3"></path>
<path class="st1" d="M145.1,35.7h4.9l-2.7,15.5h-4.9l0.2-1.2c-1.2,1.1-2.6,1.6-4.3,1.6c-1.7,0-3.1-0.6-4.1-1.7  c-1-1.1-1.5-2.6-1.5-4.5c0-1.2,0.2-2.4,0.6-3.6c0.4-1.2,0.9-2.3,1.6-3.2c0.7-1,1.6-1.8,2.6-2.4c1.1-0.6,2.3-0.9,3.5-0.9  c1.7,0,3,0.6,3.8,1.7L145.1,35.7z M140.2,47.2c1.6,0,2.7-1.1,3.2-3.3l0.2-1c0-0.4,0.1-0.6,0.1-0.8c0-1.6-0.7-2.5-2-2.5  c-1.1,0-2,0.6-2.5,1.7c-0.6,1.1-0.9,2.3-0.9,3.5c0,0.8,0.2,1.4,0.5,1.8C139.1,47,139.6,47.2,140.2,47.2z"></path>
<path class="st1" d="M150.2,51.2l2.8-15.5h5.5l-2.9,15.5H150.2z M156.1,34.1c-0.9,0-1.6-0.3-2-0.8c-0.5-0.5-0.7-1.1-0.7-1.8  c0-1.1,0.3-2,1-2.7c0.7-0.7,1.5-1,2.6-1c0.9,0,1.6,0.3,2,0.8c0.5,0.5,0.7,1.1,0.7,1.8c0,1-0.3,1.9-1,2.6  C158.1,33.8,157.2,34.1,156.1,34.1z"></path>
<path class="st1" d="M172.2,35.3c1.3,0,2.4,0.3,3.1,1c0.8,0.7,1.1,1.7,1.1,3c0,0.6,0,1.1-0.1,1.5l-1.8,10.5h-5.6l1.6-8.7  c0.1-0.8,0.2-1.3,0.2-1.6c0-0.8-0.5-1.2-1.4-1.2c-0.9,0-1.9,0.4-3,1.1l-1.8,10.4h-5.6l2.7-15.5h5.1l-0.2,1.4  C168.3,35.8,170.3,35.3,172.2,35.3"></path>
<path class="st1" d="M183.2,51.5c-2.8,0-5-0.8-6.6-2.4l2.2-3.3c1.4,1.1,2.9,1.6,4.4,1.6c0.6,0,1-0.1,1.3-0.3  c0.3-0.2,0.4-0.4,0.4-0.7c0-0.1-0.1-0.2-0.1-0.3c-0.1-0.1-0.2-0.2-0.4-0.3c-0.2-0.1-0.3-0.2-0.5-0.2c-0.1-0.1-0.4-0.1-0.7-0.3  c-0.3-0.1-0.6-0.2-0.7-0.3c-1.4-0.6-2.3-1.1-2.9-1.6c-0.7-0.7-1.1-1.7-1.1-2.8c0-1.4,0.6-2.7,1.9-3.8c1.3-1.1,3-1.6,5.3-1.6  c2.5,0,4.6,0.7,6.3,2l-2.3,3.3c-1.2-0.8-2.5-1.2-3.9-1.2c-1.1,0-1.6,0.3-1.6,0.8c0,0.1,0,0.2,0.1,0.2c0,0.1,0.1,0.2,0.2,0.2  c0.1,0.1,0.2,0.1,0.2,0.2c0.1,0.1,0.2,0.1,0.4,0.2c0.2,0.1,0.3,0.1,0.4,0.2c0.1,0,0.3,0.1,0.5,0.2c0.2,0.1,0.4,0.1,0.5,0.2  c1.4,0.5,2.4,1.1,3.2,1.8c0.8,0.7,1.1,1.6,1.1,2.8c0,1.6-0.7,2.9-2.1,3.9C187.3,51,185.4,51.5,183.2,51.5"></path>
<path class="st1" d="M200.5,39.3l-1,5.5c0,0.2-0.1,0.4-0.1,0.6c0,0.5,0.2,0.8,0.5,1c0.3,0.2,0.7,0.3,1.1,0.3c0.6,0,1.4-0.2,2.4-0.6  l0.9,4c-1.8,1-3.7,1.5-5.6,1.5c-3.3,0-4.9-1.5-4.9-4.5c0-0.5,0-1,0.1-1.5l1-6.3h-2l0.7-3.6h2l0.8-4.8h5.5l-0.8,4.8h4.7l-0.7,3.6  H200.5z"></path>
<path class="st1" d="M213,51.5c-2.3,0-4.1-0.6-5.3-1.9c-1.2-1.3-1.8-2.9-1.8-4.8c0-0.5,0.1-1.1,0.2-1.7c0.4-2.4,1.4-4.3,3-5.8  c1.6-1.4,3.6-2.1,6-2.1c2.4,0,4.2,0.6,5.3,1.9c1.2,1.3,1.7,2.8,1.7,4.7c0,0.5-0.1,1.1-0.2,1.8c-0.4,2.4-1.4,4.3-3,5.7  C217.4,50.8,215.4,51.5,213,51.5 M213.3,47.1c0.9,0,1.6-0.4,2.2-1.1c0.6-0.7,1-1.7,1.3-3c0.1-0.5,0.1-0.8,0.1-1.1  c0-0.7-0.2-1.3-0.5-1.7c-0.3-0.5-0.8-0.7-1.5-0.7c-0.8,0-1.6,0.4-2.2,1.1c-0.6,0.7-1,1.7-1.3,3.1c-0.1,0.4-0.1,0.7-0.1,1  C211.3,46.4,212,47.1,213.3,47.1z"></path>
<path class="st1" d="M235.4,35.3c1.1,0,2,0.2,2.6,0.7l-1.9,4.2c-0.6-0.3-1.3-0.5-2-0.5c-1.2,0-2.5,0.4-3.7,1.2l-1.8,10.2H223  l2.7-15.5h5.4l-0.3,1.5C232.4,35.9,233.9,35.3,235.4,35.3"></path>
<path class="st1" d="M259.7,35.3c1.3,0,2.4,0.3,3.3,1c0.8,0.7,1.2,1.7,1.2,3c0,0.4,0,0.9-0.1,1.4l-1.8,10.4h-5.6l1.6-9.2  c0.1-0.5,0.2-0.9,0.2-1.2c0-0.7-0.5-1.1-1.4-1.1c-0.9,0-1.9,0.4-3,1.1l-1.8,10.4h-5.6l1.7-9.5c0.1-0.3,0.1-0.6,0.1-0.9  c0-0.4-0.1-0.7-0.3-0.9c-0.2-0.2-0.5-0.3-1-0.3c-1,0-2,0.4-3,1.2l-1.8,10.3h-5.6l2.7-15.5h5.1l-0.3,1.6c2-1.3,4-2,5.8-2  c1.9,0,3.2,0.7,3.8,2.1C255.9,36,257.8,35.3,259.7,35.3"></path>
<path class="st1" d="M107.5,61.4h-5.6l-0.5,2.9h5l-0.4,2.1h-5l-0.6,3.2h5.5l-0.4,2.1h-7.9l2-11.4c0.1-0.3,0.2-0.5,0.4-0.7  c0.2-0.2,0.5-0.3,0.8-0.3h7L107.5,61.4z"></path>
<path class="st1" d="M112,71.9c-0.9,0-1.7-0.2-2.4-0.5c-0.7-0.3-1.3-0.8-1.8-1.4l1.4-1.6c0.8,0.9,1.7,1.3,2.9,1.3  c0.8,0,1.4-0.2,1.9-0.5c0.5-0.4,0.7-0.8,0.7-1.2c0-0.1,0-0.2-0.1-0.4c0-0.1-0.1-0.2-0.2-0.3c-0.1-0.1-0.2-0.2-0.3-0.2  c-0.1-0.1-0.2-0.1-0.4-0.2c-0.2-0.1-0.3-0.1-0.4-0.2c-0.1,0-0.3-0.1-0.5-0.2c-0.2-0.1-0.4-0.2-0.5-0.2c-0.9-0.3-1.6-0.8-2.1-1.3  c-0.5-0.5-0.8-1.2-0.8-2c0-1.2,0.5-2.1,1.4-2.9c0.9-0.8,2.1-1.1,3.5-1.1c1.5,0,2.7,0.4,3.7,1.3l-1.3,1.6c-0.7-0.6-1.5-0.9-2.4-0.9  c-0.7,0-1.3,0.2-1.7,0.5c-0.4,0.3-0.7,0.7-0.7,1.2c0,0.4,0.2,0.7,0.5,0.9c0.3,0.2,0.8,0.5,1.4,0.7c0.4,0.2,0.7,0.3,0.9,0.4  c0.2,0.1,0.5,0.2,0.8,0.4c0.4,0.2,0.6,0.4,0.8,0.6c0.2,0.2,0.3,0.5,0.5,0.8c0.1,0.3,0.2,0.7,0.2,1.1c0,1.2-0.5,2.1-1.4,2.9  C114.8,71.5,113.5,71.9,112,71.9"></path>
<path class="st1" d="M124.5,71.9c-1.6,0-2.9-0.4-3.8-1.3c-0.9-0.9-1.3-2.1-1.3-3.7c0-1,0.2-1.9,0.5-2.8c0.3-0.9,0.8-1.8,1.4-2.5  c0.6-0.7,1.4-1.4,2.3-1.8c0.9-0.5,2-0.7,3.1-0.7c1.1,0,2.1,0.3,2.9,0.8c0.8,0.6,1.3,1.3,1.6,2.3l-2.1,0.9c-0.5-1.2-1.4-1.8-2.7-1.8  c-0.7,0-1.4,0.2-2,0.5c-0.6,0.3-1.1,0.8-1.4,1.3c-0.4,0.5-0.6,1.1-0.8,1.7c-0.2,0.6-0.3,1.3-0.3,1.9c0,1,0.3,1.7,0.8,2.2  c0.5,0.5,1.2,0.8,2.1,0.8c1.3,0,2.5-0.6,3.8-1.8l1.4,1.5c-0.7,0.7-1.5,1.3-2.4,1.8C126.6,71.7,125.6,71.9,124.5,71.9"></path>
<path class="st1" d="M137.3,71.9c-1.6,0-2.9-0.5-3.8-1.4c-0.9-0.9-1.4-2.2-1.4-3.7c0-1,0.2-1.9,0.5-2.8c0.3-0.9,0.8-1.7,1.3-2.5  c0.6-0.7,1.3-1.3,2.3-1.8c0.9-0.5,2-0.7,3.2-0.7c1.6,0,2.9,0.5,3.8,1.4c0.9,0.9,1.4,2.2,1.4,3.8c0,1-0.2,1.9-0.5,2.8  c-0.3,0.9-0.7,1.7-1.3,2.5c-0.6,0.7-1.3,1.3-2.3,1.8C139.6,71.7,138.5,71.9,137.3,71.9 M137.5,69.7c0.8,0,1.4-0.2,2-0.5  c0.6-0.3,1.1-0.8,1.4-1.3c0.4-0.5,0.6-1.1,0.8-1.7c0.2-0.6,0.3-1.2,0.3-1.8c0-1-0.2-1.7-0.7-2.3c-0.5-0.6-1.2-0.8-2.2-0.8  c-1,0-1.8,0.3-2.5,0.9c-0.7,0.6-1.2,1.3-1.5,2.1c-0.3,0.8-0.5,1.6-0.5,2.5c0,1,0.3,1.7,0.8,2.2C135.9,69.5,136.6,69.7,137.5,69.7z"></path>
<path class="st1" d="M147.2,71.8c-0.3,0-0.5-0.1-0.7-0.3c-0.2-0.2-0.2-0.4-0.2-0.7l2-11.4h2.5L149,69.7h5.4l-0.4,2.1H147.2z"></path>
<path class="st1" d="M164.3,71.8l-0.5-3.1h-4.3l-1.6,3.1h-2.6l6-11.3c0.4-0.8,1.1-1.1,2-1.1s1.5,0.4,1.6,1.2l2,11.2H164.3z   M160.6,66.6h3l-0.7-4.5L160.6,66.6z"></path>
<path class="st1" d="M173.1,71.8l2-11.5c0.1-0.6,0.5-1,1.1-1h3.6c1.6,0,2.8,0.5,3.7,1.4c0.9,1,1.3,2.2,1.3,3.6  c0,0.9-0.1,1.8-0.4,2.7c-0.3,0.9-0.7,1.6-1.3,2.4c-0.6,0.7-1.3,1.3-2.2,1.7c-0.9,0.4-1.9,0.6-3.1,0.6H173.1z M176,69.7h1.8  c1.4,0,2.5-0.5,3.4-1.5c0.9-1,1.3-2.3,1.3-3.8c0-0.9-0.2-1.6-0.7-2.2c-0.5-0.5-1.2-0.8-2.1-0.8h-2.2L176,69.7z"></path>
<path class="st1" d="M195.9,61.4h-5.6l-0.5,2.9h5l-0.4,2.1h-5l-0.6,3.2h5.5l-0.4,2.1h-7.9l2-11.4c0.1-0.3,0.2-0.5,0.4-0.7  c0.2-0.2,0.5-0.3,0.8-0.3h7L195.9,61.4z"></path>
<path class="st1" d="M212,59.3h2.3l-2.1,11.8c0,0.2-0.2,0.4-0.5,0.6c-0.3,0.1-0.6,0.2-0.9,0.2c-0.4,0-0.7-0.1-0.9-0.2  c-0.2-0.1-0.4-0.3-0.5-0.5l-4.1-7.8l-1.5,8.4h-2.3l2-11.5c0.1-0.7,0.6-1,1.5-1c0.5,0,0.8,0.1,1,0.2c0.2,0.1,0.4,0.4,0.6,0.8l3.9,7.3  L212,59.3z"></path>
<path class="st1" d="M225.4,61.4h-5.6l-0.5,2.9h5l-0.4,2.1h-5l-0.6,3.2h5.5l-0.4,2.1h-7.9l2-11.4c0.1-0.3,0.2-0.5,0.4-0.7  c0.2-0.2,0.5-0.3,0.8-0.3h7L225.4,61.4z"></path>
<path class="st1" d="M231.9,72c-1.6,0-2.9-0.5-3.9-1.4c-1-0.9-1.5-2.3-1.5-4c0-1,0.2-1.9,0.5-2.8c0.3-0.9,0.8-1.7,1.4-2.4  c0.6-0.7,1.3-1.3,2.3-1.7c0.9-0.4,1.9-0.6,3.1-0.6c1.2,0,2.3,0.3,3.2,0.9c0.9,0.6,1.4,1.4,1.7,2.3l-2.1,0.8  c-0.2-0.6-0.6-1.1-1.1-1.4c-0.5-0.3-1.1-0.5-1.8-0.5c-0.7,0-1.4,0.2-2,0.5c-0.6,0.3-1.1,0.7-1.4,1.2c-0.4,0.5-0.6,1.1-0.8,1.7  c-0.2,0.6-0.3,1.2-0.3,1.9c0,1.1,0.3,1.9,0.8,2.5c0.5,0.6,1.3,0.9,2.2,0.9c0.9,0,1.6-0.3,2.4-0.8c0.7-0.5,1.2-1.3,1.4-2.2h-3l0.3-2  h5.6l-0.3,1.6c-0.3,1.8-1.1,3.2-2.3,4.1C234.9,71.5,233.5,72,231.9,72"></path>
<path class="st1" d="M245.6,71.9c-1.6,0-2.9-0.5-3.8-1.4c-0.9-0.9-1.4-2.2-1.4-3.7c0-1,0.2-1.9,0.5-2.8c0.3-0.9,0.8-1.7,1.3-2.5  c0.6-0.7,1.3-1.3,2.3-1.8c0.9-0.5,2-0.7,3.2-0.7c1.6,0,2.9,0.5,3.8,1.4c0.9,0.9,1.4,2.2,1.4,3.8c0,1-0.2,1.9-0.5,2.8  c-0.3,0.9-0.7,1.7-1.3,2.5c-0.6,0.7-1.3,1.3-2.3,1.8C247.8,71.7,246.8,71.9,245.6,71.9 M245.8,69.7c0.8,0,1.4-0.2,2-0.5  c0.6-0.3,1.1-0.8,1.4-1.3c0.4-0.5,0.6-1.1,0.8-1.7c0.2-0.6,0.3-1.2,0.3-1.8c0-1-0.2-1.7-0.7-2.3c-0.5-0.6-1.2-0.8-2.2-0.8  c-1,0-1.8,0.3-2.5,0.9c-0.7,0.6-1.2,1.3-1.5,2.1c-0.3,0.8-0.5,1.6-0.5,2.5c0,1,0.3,1.7,0.8,2.2C244.2,69.5,244.9,69.7,245.8,69.7z   M246.8,57.6l3-2.9l1.3,1.6l-3.3,2.4L246.8,57.6z"></path>
<path class="st1" d="M259.8,71.9c-1.6,0-2.9-0.4-3.8-1.3c-0.9-0.9-1.3-2.1-1.3-3.7c0-1,0.2-1.9,0.5-2.8c0.3-0.9,0.8-1.8,1.4-2.5  c0.6-0.7,1.4-1.4,2.3-1.8c0.9-0.5,2-0.7,3.1-0.7c1.1,0,2.1,0.3,2.9,0.8c0.8,0.6,1.3,1.3,1.6,2.3l-2.1,0.9c-0.5-1.2-1.4-1.8-2.7-1.8  c-0.7,0-1.4,0.2-2,0.5c-0.6,0.3-1.1,0.8-1.4,1.3c-0.4,0.5-0.6,1.1-0.8,1.7c-0.2,0.6-0.3,1.3-0.3,1.9c0,1,0.3,1.7,0.8,2.2  c0.5,0.5,1.2,0.8,2.1,0.8c1.3,0,2.5-0.6,3.8-1.8l1.4,1.5c-0.7,0.7-1.5,1.3-2.4,1.8C261.9,71.7,260.9,71.9,259.8,71.9"></path>
<polygon class="st1" points="267.5,71.8 269.7,59.3 272.1,59.3 269.9,71.8 "></polygon>
<path class="st1" d="M278.9,71.9c-1.6,0-2.9-0.5-3.8-1.4c-0.9-0.9-1.4-2.2-1.4-3.7c0-1,0.2-1.9,0.5-2.8c0.3-0.9,0.8-1.7,1.3-2.5  c0.6-0.7,1.3-1.3,2.3-1.8c0.9-0.5,2-0.7,3.2-0.7c1.6,0,2.9,0.5,3.8,1.4c0.9,0.9,1.4,2.2,1.4,3.8c0,1-0.2,1.9-0.5,2.8  c-0.3,0.9-0.7,1.7-1.3,2.5c-0.6,0.7-1.3,1.3-2.3,1.8C281.2,71.7,280.1,71.9,278.9,71.9 M279.1,69.7c0.8,0,1.4-0.2,2-0.5  c0.6-0.3,1.1-0.8,1.4-1.3c0.4-0.5,0.6-1.1,0.8-1.7c0.2-0.6,0.3-1.2,0.3-1.8c0-1-0.2-1.7-0.7-2.3c-0.5-0.6-1.2-0.8-2.2-0.8  c-1,0-1.8,0.3-2.5,0.9c-0.7,0.6-1.2,1.3-1.5,2.1c-0.3,0.8-0.5,1.6-0.5,2.5c0,1,0.3,1.7,0.8,2.2C277.5,69.5,278.2,69.7,279.1,69.7z"></path>
<path class="st1" d="M291.2,71.9c-0.9,0-1.7-0.2-2.4-0.5c-0.7-0.3-1.3-0.8-1.8-1.4l1.4-1.6c0.8,0.9,1.7,1.3,2.9,1.3  c0.8,0,1.4-0.2,1.9-0.5c0.5-0.4,0.7-0.8,0.7-1.2c0-0.1,0-0.2-0.1-0.4c0-0.1-0.1-0.2-0.2-0.3c-0.1-0.1-0.2-0.2-0.3-0.2  c-0.1-0.1-0.2-0.1-0.4-0.2c-0.2-0.1-0.3-0.1-0.4-0.2c-0.1,0-0.3-0.1-0.5-0.2c-0.2-0.1-0.4-0.2-0.5-0.2c-0.9-0.3-1.6-0.8-2.1-1.3  c-0.5-0.5-0.8-1.2-0.8-2c0-1.2,0.5-2.1,1.4-2.9c0.9-0.8,2.1-1.1,3.5-1.1c1.5,0,2.7,0.4,3.7,1.3l-1.3,1.6c-0.7-0.6-1.5-0.9-2.4-0.9  c-0.7,0-1.3,0.2-1.7,0.5c-0.4,0.3-0.7,0.7-0.7,1.2c0,0.4,0.2,0.7,0.5,0.9c0.3,0.2,0.8,0.5,1.4,0.7c0.4,0.2,0.7,0.3,0.9,0.4  c0.2,0.1,0.5,0.2,0.8,0.4c0.4,0.2,0.6,0.4,0.8,0.6c0.2,0.2,0.3,0.5,0.5,0.8c0.1,0.3,0.2,0.7,0.2,1.1c0,1.2-0.5,2.1-1.4,2.9  C293.9,71.5,292.7,71.9,291.2,71.9"></path>
<path class="st1" d="M278.5,36.6c-1.8,0-3.4,0.6-4.6,1.7c-1.3,1.1-2.1,2.6-2.4,4.5c-0.3,1.8,0,3.3,1,4.4c0.9,1.1,2.3,1.7,4.1,1.7  c1.8,0,3.4-0.6,4.7-1.6c1.3-1.1,2.1-2.6,2.3-4.4c0.3-1.8,0-3.3-1-4.5C281.7,37.1,280.3,36.6,278.5,36.6 M274.9,42.7  c0.2-1,0.5-1.8,1.1-2.4c0.5-0.5,1.2-0.8,2.1-0.8c0.8,0,1.4,0.3,1.8,0.8c0.4,0.5,0.5,1.3,0.3,2.3c-0.2,1-0.5,1.8-1.1,2.3  c-0.5,0.5-1.2,0.8-2.1,0.8c-0.9,0-1.4-0.2-1.8-0.8C274.9,44.5,274.7,43.7,274.9,42.7z"></path>
<path class="st1" d="M293,36.8l-0.9,6l-2.6-4.7c-0.3-0.5-0.5-0.9-0.8-1.1c-0.3-0.2-0.7-0.3-1.3-0.3c-1.4,0-1.8,0.7-1.9,1.3  l-1.7,10.5h3.2l0.9-6l2.8,5.2c0.2,0.3,0.4,0.6,0.7,0.7c0.3,0.1,0.6,0.2,1.2,0.2c0.5,0,0.9-0.1,1.2-0.3c0.4-0.2,0.6-0.5,0.6-0.8  l1.7-10.9H293z"></path>
</svg>